<svg
  xmlns="http://www.w3.org/2000/svg"
  xmlns:xlink="http://www.w3.org/1999/xlink"
  viewBox="0 0 20 20">
    <g fill="none">
      <path d="M15.5 7a2.5 2.5 0 0 1 2.494 2.336L18 9.5v6a2.5 2.5 0 0 1-2.336 2.494L15.5 18h-6a2.5 2.5 0 0 1-2.495-2.336L7 15.5v-6a2.5 2.5 0 0 1 2.336-2.495L9.5 7h6zm0 1h-6a1.5 1.5 0 0 0-1.493 1.356L8 9.5v6a1.5 1.5 0 0 0 1.356 1.493L9.5 17h6a1.5 1.5 0 0 0 1.493-1.356L17 15.5v-6a1.5 1.5 0 0 0-1.356-1.493L15.5 8zm-3 1a.5.5 0 0 1 .492.41L13 9.5l-.001 2.5H15.5a.5.5 0 0 1 .09.992L15.5 13H13L13 15.5a.5.5 0 0 1-.992.09L12 15.5l-.001-2.5H9.5a.5.5 0 0 1-.09-.992L9.5 12H12L12 9.5a.5.5 0 0 1 .5-.5zm.162-5.305l.048.158L13.285 6h-1.036l-.505-1.889a1.5 1.5 0 0 0-1.696-1.091l-.141.03L4.11 4.605A1.5 1.5 0 0 0 3.02 6.299l.03.142l1.554 5.795A1.5 1.5 0 0 0 6 13.347v1a2.502 2.502 0 0 1-2.31-1.682l-.052-.17L2.085 6.7a2.5 2.5 0 0 1 1.61-3.015l.158-.047l5.795-1.553a2.5 2.5 0 0 1 2.957 1.458l.057.152z" fill="currentColor"></path>
    </g>
</svg>