<svg
  version="1.1"
  xmlns="http://www.w3.org/2000/svg"
  height="1024"
  width="1024"
  viewBox="0 0 1024 1024">
    <path d="M296.6 772.3a178.9 31.3 0 1 0 357.8 0 178.9 31.3 0 1 0-357.8 0Z" fill="#717071"></path>
    <path d="M688 426.8c0-50.8-18.8-97.2-49.7-132.7-3.1-33.3 24.9-17.9 24.9-17.9-7.3-23.7-34.9-22.4-57.1-11.9-37-27.5-83.8-42.7-134.1-39.4-99.4 6.5-180.6 86.6-188.2 185.9-5.8 75.6 29.9 143.3 86.8 182.6-27.2 24.9-45.8 58-48 94.6-1 1.5-2 3.1-2.8 4.8 0.9 2.8 1.9 5.8 3 8.9 1 17.7 6.1 31.9 14.5 43.2l-0.2 0.6c-5.6 1.1-13.9 2.4-14.7 6.7v0.1c-1.4 8.7 2.9 17.7 10.4 22.4 8.1 5 18.4 6.3 30 4.5 19.9-3 34.1-21 34.1-41.2v-6.6l4.7-6.5c3.9 10.5 8.8 19.7 14.5 27.7 12.4 17.5 32.9 27.3 54.3 27.3 81.8 0 164 5 164-76.8 0-39.4-15.5-76.9-40.5-105.3 56.6-36 94.1-99.1 94.1-171z" fill="#F7F7F7"></path>
    <path d="M497.5 783.8h-26.9c-23.2 0-44.7-10.8-57.5-28.9-4.7-6.6-8.7-13.7-12-21.2v4.3c0 22.4-16.1 41.8-37.5 45.1-13.1 2-24.1 0.3-32.7-5.1-9-5.6-13.9-16.2-12.3-26.4 1-5.5 6.7-7.6 12.5-8.9-7.1-11.3-11.1-24.8-12.1-40.2-1-2.9-1.9-5.7-2.8-8.4l-0.5-1.5 0.7-1.4c0.7-1.5 1.6-2.9 2.5-4.3 2.3-33.7 18.4-66.5 45.6-92.8-58.6-42.5-90.1-110.7-84.5-183.3 7.8-101.5 90.3-182.9 191.9-189.6 48.2-3.2 96 10.6 134.9 38.8 16.4-7.2 32.8-8.5 44.2-3.5 7.9 3.5 13.5 10 16.2 18.8l2.9 9.3-8.5-4.7c-2.6-1.4-11-4.8-15.4-1.9-3.7 2.4-4.2 9.1-3.8 14.8 32.1 37.4 49.8 85 49.8 134.3 0 69.4-34.3 133.3-92 171.8 24.9 29.8 38.5 66.7 38.5 104.5 0 23.2-6.3 40.8-19.2 53.6-25.5 24.9-71.7 26.8-122 26.8z m-94.7-67.4l2.6 7c3.6 9.7 8.3 18.7 14.1 26.8 11.3 16 30.4 25.6 51.1 25.6h13.5c53.8 0.2 104.4 0.3 129.7-24.9 11.3-11.3 16.8-27 16.8-48 0-37.3-14-73.8-39.5-102.7l-3.1-3.5 3.9-2.5c57.7-36.7 92.2-99.3 92.2-167.6 0-47.8-17.3-94-48.7-130.1l-0.8-1-0.1-1.3c-1.1-11.7 1.4-19.5 7.2-23.4 4.2-2.7 9.2-2.8 13.5-2-2-2.4-4.5-4.3-7.5-5.7-9.8-4.4-24.7-2.7-39.8 4.4l-2.1 1-1.9-1.4c-37.7-28-84.3-41.7-131.5-38.6-97.7 6.4-177 84.7-184.5 182.3-5.5 71.4 26.3 138.4 85.1 179l4.1 2.8-3.7 3.4c-28.2 25.8-44.7 58.4-46.7 91.9l-0.1 1.1-0.6 0.9c-0.6 0.9-1.2 1.9-1.8 2.9 0.8 2.3 1.6 4.8 2.4 7.2l0.2 1.1c0.9 16.2 5.5 30 13.7 41.1l1.2 1.7-1.4 4.1-3.8 1.3c-2.6 0.5-9.4 1.9-10.2 3.4-1.1 6.9 2.4 14.4 8.7 18.3 7 4.4 16.2 5.7 27.3 4 17.5-2.7 30.8-18.7 30.8-37.2V730l9.7-13.6z" fill="#888888"></path>
    <path d="M573.3 464.3c0-104.1-84.4-188.5-188.5-188.5-9.9 0-19.6 0.8-29 2.2-42 36.1-68.6 89.6-68.6 149.4 0 101.4 76.5 184.8 174.9 195.8 7.3 0.8 22.6 25 30.1 25 0 0-7.9-23.8-7.8-23.8 4.3-2.7 8.5-5.5 12.5-8.5 46.3-34.3 76.4-89.4 76.4-151.6z" fill="#FFFFFF"></path>
    <path d="M164.9 756.3c0 12.9-18.9 23.3-42.2 23.3s-42.2-15.3-42.2-15.3 18.9-31.2 42.2-31.2 42.2 13 42.2 23.2z" fill="#F7F7F7"></path>
    <path d="M122.7 783.6c-24.4 0-43.9-15.6-44.7-16.2-1.5-1.2-1.9-3.4-0.9-5.1 0.8-1.4 20.3-33.1 45.6-33.1 26 0 46.2 14.6 46.2 27.2 0 15.2-20.3 27.2-46.2 27.2z m-36.8-20.3c5.9 4 20.3 12.4 36.8 12.4 20.7 0 38.2-8.8 38.2-19.3 0-6.8-15.8-19.3-38.2-19.3-16.7-0.1-31.5 18.7-36.8 26.2z" fill="#888888"></path>
    <path d="M130.1 762.1c-1.8 0-3.5-1.3-3.9-3.1-0.5-2.1 0.9-4.2 3-4.7 38.8-8.3 54.5 0 55.2 0.4 1.9 1.1 2.6 3.5 1.6 5.4-1.1 1.9-3.5 2.6-5.4 1.6-0.1 0-14.3-7.2-49.7 0.4h-0.8z" fill="#888888"></path>
    <path d="M404.6 595.9c-8.7 0-17 3.2-23.8 8.5-16.8 13.3-36.4 20.9-58.9 23.1-2.4-0.6-5.9 0-8.4 0-16.7 0-30.3 13.6-30.3 30.3 0 13.9 11.3 25.4 21.4 30.8 2.9 2.4 6.9 2.6 10.6 3.9 11.9 4.2 24.7 6.5 38.1 6.5 31.1 0 59.3-12.4 80-32.4 26.5-25.7 8.3-70.7-28.7-70.7z" fill="#F7F7F7"></path>
    <path d="M353.3 703.1c-13.5 0-26.8-2.3-39.4-6.8-1.1-0.4-2.2-0.7-3.2-0.9-2.8-0.7-5.9-1.5-8.5-3.7-10.2-5.4-22.8-17.9-22.8-33.8 0-18.9 15.4-34.2 34.2-34.2 0.8 0 1.6-0.1 2.5-0.1 2-0.1 4.2-0.3 6.2 0.1 21.8-2.2 40.2-9.5 56.2-22.2 7.8-6.1 16.9-9.4 26.3-9.4 18.7 0 34.7 10.8 41.8 28.1 7.1 17.4 3.1 36.3-10.4 49.4-22.5 21.5-51.9 33.5-82.9 33.5z m-33.9-71.8c-0.9 0-1.9 0.1-2.8 0.1-1.1 0.1-2.1 0.2-3.1 0.2-14.5 0-26.3 11.8-26.3 26.3 0 11.7 9.7 22.1 19.3 27.3 1.9 1.5 3.8 2 6.1 2.5 1.3 0.3 2.7 0.7 3.9 1.1 11.8 4.2 24.2 6.3 36.8 6.3 29 0 56.4-11.1 77.2-31.3 11.1-10.8 14.4-26.4 8.6-40.7-5.8-14.3-19-23.2-34.4-23.2-7.6 0-15 2.7-21.4 7.7-17.2 13.6-37.7 21.6-60.9 23.9l-0.7 0.1-0.7-0.2c-0.4-0.1-1-0.1-1.6-0.1z" fill="#888888"></path>
    <path d="M252.1 753.1c-1.9 0-3.5-1.3-3.9-3.2-0.4-2.1 1-4.2 3.2-4.6 4.5-0.9 451.8-86.2 487.4-213.2 1-3.4 1.8-6.6 2.5-9.6-29.8-4.3-38.8-15.4-41-24.3-2.9-11.4 4.7-22.5 13.5-28.4 9.8-6.7 20.7-7.4 28.3-1.9 7.3 5.2 14 17.7 8.8 47.1 54.2-6.9 108-41.5 144.7-93.2 39.5-55.7 53.2-121 38.3-183.9-0.5-2.1 0.8-4.3 2.9-4.8 2.2-0.5 4.3 0.8 4.8 2.9 15.1 64.2 0.7 133.6-39.6 190.3-38.6 54.3-95.6 90.4-152.8 96.8-0.8 3.5-1.7 7.2-2.8 11.1-37 131.6-475 215.3-493.6 218.8-0.2 0-0.5 0.1-0.7 0.1z m478.3-281c-4.4 0-8.9 1.9-12.3 4.2-6.5 4.4-12.2 12.3-10.3 20 1.3 5.4 7.7 14.6 35 18.4 5.3-28.7-1.7-37.8-5.5-40.5-2.1-1.5-4.5-2.1-6.9-2.1z" fill="#888888"></path>
    <path d="M324.9 444.4c-16.1-6.7 45.4 46.9 92.3 19.2 0 0-42.3 1.6-92.3-19.2z" fill="#9E9E9F"></path>
    <path d="M362.9 489.3m-9 0a9 9 0 1 0 18 0 9 9 0 1 0-18 0Z" fill="#9E9E9F"></path>
    <path d="M328.8 548.2c13.8-3.8 30 0 30 0l-23.8 8.5-6.2-8.5z" fill="#9E9E9F"></path>
    <path d="M335.1 629.5c-4.5 1-9.2 1.8-14.1 2.3-2.1-0.5-5.2 0-7.4 0-14.7 0-26.6 11.9-26.6 26.6 0 12.2 9.9 22.2 18.8 27 2.5 2.1 6.1 2.3 9.3 3.4 8.3 2.9 17.1 4.8 26.3 5.4 9.8-6.7 16.3-17.9 16.3-30.6 0-15.3-9.3-28.5-22.6-34.1z" fill="#FFFFFF"></path>
</svg>