<svg
  version="1.1"
  xmlns="http://www.w3.org/2000/svg"
  fill-rule="evenodd"
  clip-rule="evenodd"
  viewBox="0 0 1024 1024">
    <path d="M826.387293 189.703573c-17.802458-26.473955-43.500746-41.657772-70.50375-41.657772-14.128789 0-25.582655 11.453866-25.582655 25.582655s11.453866 25.582655 25.582655 25.582655c20.860097 0 44.102451 32.051997 44.102451 78.04654l0 595.912132c0 45.99966-23.242354 78.056774-44.102451 78.056774L268.116457 951.226556c-20.860097 0-44.102451-32.057113-44.102451-78.056774L224.014007 277.257651c0-45.994544 23.242354-78.04654 44.102451-78.04654 14.128789 0 25.582655-11.453866 25.582655-25.582655s-11.453866-25.582655-25.582655-25.582655c-27.004027 0-52.701293 15.183817-70.50375 41.657772-15.968693 23.746844-24.76401 54.841026-24.76401 87.554078l0 595.912132c0 32.713053 8.794293 63.808258 24.762987 87.557148 17.802458 26.479071 43.500746 41.664935 70.504774 41.664935l487.767086 0c27.004027 0 52.702316-15.185864 70.504774-41.664935 15.96767-23.74889 24.761963-54.845119 24.761963-87.557148L851.15028 277.257651C851.151303 244.544599 842.35701 213.450417 826.387293 189.703573z"></path>
    <path d="M375.938138 249.461585l272.121678 0c19.159362 0 34.745339-15.22475 34.745339-33.93795l0-80.213903c0-18.714224-15.585977-33.938973-34.745339-33.938973l-63.853283 0c-10.854209-25.908066-37.689391-44.283576-68.993351-44.283576-31.30396 0-58.139142 18.376533-68.994374 44.283576l-70.28067 0c-19.158339 0-34.744315 15.22475-34.744315 33.938973l0 80.213903C341.193823 234.236835 356.780823 249.461585 375.938138 249.461585zM392.359133 152.536069l99.877755 0 0-25.582655c0-10.31288 10.307763-18.701944 22.976294-18.701944s22.975271 8.390088 22.975271 18.701944l0.001023 25.581632 93.450369 0 0 45.760207L392.359133 198.295252 392.359133 152.536069z"></path>
    <path d="M289.457508 415.600463c0 14.128789 11.453866 25.582655 25.582655 25.582655l393.918651 0c14.128789 0 25.582655-11.453866 25.582655-25.582655l0 0c0-14.128789-11.453866-25.582655-25.582655-25.582655L315.040163 390.017808C300.911374 390.017808 289.457508 401.471674 289.457508 415.600463L289.457508 415.600463z"></path>
    <path d="M708.958814 574.875003 315.040163 574.875003c-14.128789 0-25.582655 11.453866-25.582655 25.582655s11.453866 25.582655 25.582655 25.582655l393.918651 0c14.128789 0 25.582655-11.453866 25.582655-25.582655S723.087603 574.875003 708.958814 574.875003z"></path>
    <path d="M708.958814 759.732198 315.040163 759.732198c-14.128789 0-25.582655 11.453866-25.582655 25.582655l0 0c0 14.128789 11.453866 25.582655 25.582655 25.582655l393.918651 0c14.128789 0 25.582655-11.453866 25.582655-25.582655l0 0C734.541469 771.186064 723.087603 759.732198 708.958814 759.732198z"></path>
</svg>