<svg
  version="1.1"
  xmlns="http://www.w3.org/2000/svg"
  height="1024"
  viewBox="0 0 1024 1024">
    <path d="M699.275876 139.938456c-9.14093 0-16.549388 7.409631-16.549388 16.550561 0 9.136238 7.408458 16.544696 16.549388 16.544697s16.549388-7.408458 16.549389-16.544697c0.001173-9.14093-7.408458-16.550561-16.549389-16.550561z m0 28.293132c-4.196875 0-8.07353-2.240367-10.171968-5.873045a11.747262 11.747262 0 0 1 10.171968-17.617961c6.482987 0.004692 11.739052 5.259583 11.739052 11.748435 0 6.482987-5.254891 11.739052-11.739052 11.742571z m157.104825 237.128137c-9.14093 0-16.549388 7.408458-16.549388 16.544697 0 9.14093 7.408458 16.549388 16.549388 16.549388 9.136238 0 16.544696-7.408458 16.544696-16.549388 0-9.136238-7.408458-16.544696-16.544696-16.544697z m0 28.293132a11.747262 11.747262 0 0 1-10.171968-17.617961 11.744916 11.744916 0 0 1 10.171968-5.869526c6.482987 0 11.743743 5.256064 11.743743 11.743743-0.001173 6.482987-5.260756 11.743743-11.743743 11.743744z m0 0" fill="#CCCCCC"></path>
    <path d="M715.386575 619.979803a8.717489 8.717489 0 0 0-8.715143 8.716316 8.719835 8.719835 0 0 0 8.715143 8.719835 8.716316 8.716316 0 0 0 8.715143-8.719835 8.715143 8.715143 0 0 0-8.715143-8.716316z m0 14.904889a6.181535 6.181535 0 0 1-5.355766-3.091941 6.193265 6.193265 0 0 1 0-6.186226 6.186227 6.186227 0 1 1 5.355766 9.278167z m0 0" fill="#EAEAEA"></path>
    <path d="M315.143331 299.687148a9.193714 9.193714 0 1 0 9.191368 9.191367 9.191368 9.191368 0 0 0-9.191368-9.191367z m0 15.720101a6.524041 6.524041 0 0 1-6.520522-6.524042 6.521695 6.521695 0 0 1 6.520522-6.525214 6.521695 6.521695 0 0 1 6.524041 6.525214 6.521695 6.521695 0 0 1-6.524041 6.524042z m600.105054 362.419757c-8.674089 0-15.707198 7.033109-15.707198 15.706025 0 8.675262 7.033109 15.708371 15.707198 15.708371s15.707198-7.033109 15.707198-15.708371c0-8.672916-7.033109-15.706025-15.707198-15.706025z m0 26.853901a11.147876 11.147876 0 1 1 0.003519-22.295752 11.147876 11.147876 0 0 1-0.003519 22.295752z m0 0" fill="#CCCCCC"></path>
    <path d="M435.95891 89.950131a6.674181 6.674181 0 1 0 13.347189 0 6.674181 6.674181 0 0 0-6.676527-6.670663 6.671835 6.671835 0 0 0-6.670662 6.670663z m0 0" fill="#E6E6E5"></path>
    <path d="M96.842483 325.070149c0 4.403317 3.569338 7.977347 7.972656 7.977347a7.976174 7.976174 0 0 0 3.986914-14.88143 7.971482 7.971482 0 1 0-11.95957 6.904083z m0 0M49.264605 538.504357c0 5.085984 4.124151 9.206616 9.210135 9.206617s9.208962-4.120632 9.208962-9.206617-4.122978-9.208962-9.208962-9.208962S49.264605 533.418373 49.264605 538.504357z m0 0" fill="#CCCCCC"></path>
    <path d="M524.041677 693.212811a6.597938 6.597938 0 0 0 3.299556 5.722905 6.596765 6.596765 0 0 0 6.607321 0 6.603803 6.603803 0 0 0 0-11.441118 6.592073 6.592073 0 0 0-6.607321 0 6.594419 6.594419 0 0 0-3.299556 5.718213z m0 0" fill="#999999"></path>
    <path d="M346.676197 171.026767h-13.613452v-14.011088h-5.607955v14.011088h-13.613452v5.609128h13.613452v13.208779h5.607955v-13.208779h13.613452v-5.609128zM277.007835 604.83211h-13.612279v-14.009915h-5.604436v14.009915h-13.612279v5.604435h13.612279v13.213471h5.604436v-13.213471h13.612279v-5.604435z m470.905109-310.428005h-17.818539V276.057732h-7.335734v18.346373h-17.818538v7.335735h17.818538v17.291876h7.335734v-17.291876h17.818539v-7.335735z m0 0" fill="#CCCCCC"></path>
    <path d="M885.374094 217.240486h-14.167093v-14.584669h-5.833164v14.584669h-14.167092v5.831991h14.167092v13.750689h5.833164v-13.750689h14.167093v-5.831991z m0 0" fill="#E6E6E5"></path>
    <path d="M251.120458 441.551615c0-2.28142-4.242621-4.132362-9.479917-4.132362-5.232605 0-9.475226 1.850942-9.475226 4.132362 0 1.997562 3.230351 3.660829 7.528101 4.050254v11.032926h3.89425v-11.032926c4.302442-0.389425 7.532793-2.052692 7.532792-4.050254z m625.397737 124.242988c-1.305512 0-2.516014 0.20175-3.583414 0.516105-0.439863-3.362896-1.447441-5.722905-2.620408-5.722905-1.576467 0-2.855001 4.239102-2.855001 9.462323 0 5.217356 1.278534 9.456458 2.855001 9.456458 1.218712 0 2.254442-2.542992 2.662635-6.11233 1.149507 0.338987 2.341242 0.510241 3.54236 0.504376 4.119459 0 7.454204-1.81458 7.454204-4.049081-0.001173-2.240367-3.33709-4.054946-7.455377-4.054946z m0 0" fill="#999999"></path>
    <path d="M243.738978 269.546593c-9.434172 0-17.081915 7.647743-17.081915 17.081916s7.647743 17.080742 17.081915 17.080742 17.085434-7.64657 17.085434-17.080742-7.651262-17.081915-17.085434-17.081916z m0 31.491812a14.415762 14.415762 0 0 1-12.481539-21.621296 14.408724 14.408724 0 0 1 12.486231-7.203189c7.95858 0 14.409897 6.451317 14.409897 14.414589 0 7.95858-6.451317 14.409897-14.414589 14.409896z m0 0" fill="#A1A1A1"></path>
    <path d="M211.175074 655.728312c-15.991056 0-28.957031 12.967148-28.95703 28.960549 0 15.996921 12.965975 28.962896 28.95703 28.962896 15.995748 0 28.962896-12.967148 28.962896-28.962896 0-15.993402-12.967148-28.96055-28.962896-28.960549z m0 53.396966c-13.49381 0-24.435244-10.941434-24.435244-24.435244s10.941434-24.435244 24.435244-24.435244c13.49381 0 24.435244 10.941434 24.435244 24.435244s-10.941434 24.435244-24.435244 24.435244z m0 0" fill="#CCCCCC"></path>
    <path d="M432.219491 763.645947h51.248092v5.874218h-51.248092z" fill="#E6E6E5"></path>
    <path d="M287.019107 785.533507h121.178025v5.869526H287.019107z" fill="#CCCCCC"></path>
    <path d="M802.698703 818.628765h191.647524v5.874218H802.698703v-5.874218z m-184.636701 0h159.280678v5.874218H618.062002v-5.874218z m-54.713035 1.062708l29.201008-20.551551 3.381663 4.802126-29.201008 20.551551-3.381663-4.802126z m0 0" fill="#999999"></path>
    <path d="M589.136641 803.943221l29.045004 20.504632 3.376971-4.812682-29.045003-20.502287-3.376972 4.810337z m-510.309754 14.685544h487.917819v5.874218H78.826887v-5.874218z m0 0" fill="#999999"></path>
    <path d="M636.51277 672.897026l-224.009677-0.042226c-0.439863-0.068032-44.161026-7.440128-48.069352-52.594658l-0.012903-0.280339V393.166735c0.026978-0.622845 2.771721-47.733883 51.192963-48.577246H634.680596l0.137237 0.014076c0.45863 0.041054 45.585008 4.576916 46.699326 55.96811v219.408128c-0.009384 0.513759-1.631597 42.778099-44.646634 52.829251l-0.357755 0.087972zM413.283116 666.491455h222.488339c37.905595-9.095184 39.335441-46.21841 39.344824-46.59376V400.639707c-0.971216-44.623175-37.804719-49.342021-40.728925-49.644646H415.670103c-42.428554 0.742488-44.765104 40.623359-44.84252 42.322987l0.003519 226.524518c3.414506 38.520229 39.294387 46.062405 42.452014 46.648889z m0 0" fill="#AAA9A9"></path>
    <path d="M629.736541 451.622708a3.468463 3.468463 0 0 1-3.468463 3.468463H427.147583a3.46729 3.46729 0 0 1-3.468463-3.468463 3.475501 3.475501 0 0 1 3.468463-3.473155h199.120495a3.475501 3.475501 0 0 1 3.468463 3.473155z m0.536045 66.726561a3.470809 3.470809 0 0 1-3.468462 3.473155H427.683629a3.471982 3.471982 0 0 1 0-6.941618h199.120495a3.471982 3.471982 0 0 1 3.468462 3.468463z m-0.536045 68.998598a3.475501 3.475501 0 0 1-3.468463 3.473155H427.147583a3.473155 3.473155 0 0 1-3.394566-3.473155 3.468463 3.468463 0 0 1 3.394566-3.468463h199.120495a3.468463 3.468463 0 0 1 3.468463 3.468463z m0 0M581.690648 387.828564H465.984513v-75.284527l23.152019 0.109086c13.191184-15.119542 27.500206-16.787501 33.141003-16.787501 0.930163 0 1.585851 0.045746 1.920147 0.077416h0.242804c20.118726 0 31.944577 12.375973 35.409521 16.613901h21.841814v75.271625z m-109.301736-6.405572h102.896165v-62.455789h-18.694745l-0.957141-1.382928c-0.430479-0.619326-10.876921-15.235666-31.193878-15.235666l-0.586484 0.004692-0.211134-0.026978a13.625182 13.625182 0 0 0-1.365333-0.055129c-4.876023 0-17.480724 1.52603-29.2057 15.637993l-0.966525 1.163583-19.716398-0.091492v62.441714z m0 0" fill="#9C9C9C"></path>
</svg>