<svg
  t="1636071367984"
  class="icon"
  viewBox="0 0 1031 1024"
  version="1.1"
  xmlns="http://www.w3.org/2000/svg"
  p-id="2974"
  xmlns:xlink="http://www.w3.org/1999/xlink">
    <defs>
      <style type="text/css"></style>
    </defs>
    <path
      d="M992 1024C992 1024 992 1024 992 1024l-960 0C12.8 1024 0 1011.2 0 992c0-38.4 0-140.8 38.4-172.8 0 0 6.4-6.4 6.4-6.4 25.6-32 70.4-76.8 211.2-96 64-12.8 102.4-32 102.4-64 0 0 0-6.4 0-6.4 0-19.2 0-38.4 0-51.2C339.2 582.4 307.2 550.4 288 505.6c-38.4-19.2-44.8-38.4-51.2-64 0 0 0-6.4 0-6.4C230.4 396.8 224 339.2 249.6 313.6 256 307.2 256 300.8 262.4 300.8c0-38.4 0-108.8 0-134.4 6.4-38.4 32-121.6 102.4-134.4 38.4-6.4 38.4-6.4 44.8-6.4 0 0 0 0 6.4 0 12.8-6.4 25.6-12.8 51.2-12.8l64-12.8c0 0 6.4 0 6.4 0C576 0 595.2 25.6 614.4 38.4c0 0 6.4 6.4 6.4 6.4 0 0 0 0 6.4 0 12.8 0 32-6.4 51.2 0 70.4 12.8 70.4 89.6 76.8 121.6 0 6.4 0 6.4 0 12.8 0 19.2 6.4 83.2 0 115.2 6.4 0 12.8 6.4 19.2 12.8 25.6 32 19.2 96 19.2 115.2-6.4 38.4-25.6 51.2-51.2 64 0 0-6.4 0-6.4 6.4-19.2 51.2-51.2 83.2-64 96 0 19.2-6.4 38.4-6.4 44.8l0 0c0 0 0 6.4 0 6.4-6.4 38.4 51.2 57.6 96 64 140.8 19.2 185.6 64 217.6 96 0 0 6.4 6.4 6.4 6.4 32 32 38.4 121.6 44.8 166.4 0 0 0 6.4 0 6.4C1024 1011.2 1011.2 1024 992 1024zM64 960l889.6 0c-6.4-44.8-12.8-83.2-19.2-96-6.4 0-6.4-6.4-12.8-12.8-25.6-25.6-57.6-57.6-179.2-76.8-147.2-19.2-153.6-96-153.6-134.4 0-12.8 6.4-57.6 6.4-64 0-6.4 6.4-12.8 12.8-19.2 0 0 44.8-38.4 64-89.6 0-6.4 6.4-12.8 12.8-19.2C691.2 448 697.6 441.6 704 441.6c19.2-12.8 19.2-12.8 25.6-19.2 0-25.6 0-51.2 0-64-12.8 0-19.2-6.4-25.6-12.8-6.4-6.4-12.8-19.2-6.4-44.8 6.4-19.2 0-83.2 0-108.8 0-6.4 0-12.8 0-19.2 0-38.4-6.4-57.6-19.2-64-12.8 0-19.2 0-32 0-6.4 0-19.2 6.4-25.6 0C588.8 108.8 576 96 563.2 83.2 556.8 76.8 550.4 64 544 64l-64 12.8c0 0-6.4 0-6.4 0-12.8 0-12.8 0-12.8 0C448 83.2 441.6 83.2 428.8 89.6c-6.4 0-12.8 0-12.8 0-6.4 0-12.8 0-38.4 6.4C345.6 102.4 332.8 147.2 332.8 172.8c0 25.6 0 89.6 0 128C332.8 320 326.4 332.8 320 339.2 313.6 352 307.2 352 294.4 358.4c0 12.8 0 38.4 0 64 0 0 0 6.4 0 12.8 0 0 0 6.4 0 6.4l0 0c0 0 6.4 6.4 25.6 12.8 6.4 6.4 12.8 12.8 19.2 19.2 19.2 51.2 64 76.8 64 76.8C416 556.8 422.4 563.2 422.4 576c0 0 0 44.8 6.4 70.4 0 6.4 0 6.4 0 12.8-6.4 64-64 102.4-160 121.6-121.6 19.2-153.6 51.2-179.2 76.8-6.4 6.4-6.4 6.4-12.8 12.8C70.4 876.8 64 915.2 64 960z"
      p-id="2975"></path>
</svg>